G04 #@! TF.FileFunction,Copper,L1,Top,Signal*
%FSLAX46Y46*%
G04 Gerber Fmt 4.6, Leading zero omitted, Abs format (unit mm)*
G04 Created by KiCad (PCBNEW 4.0.7) date 04/16/18 21:49:05*
%MOMM*%
%LPD*%
G01*
G04 APERTURE LIST*
%ADD10C,0.100000*%
%ADD11R,1.600000X1.600000*%
%ADD12C,1.600000*%
%ADD13R,1.700000X1.700000*%
%ADD14O,1.700000X1.700000*%
%ADD15O,1.600000X1.600000*%
%ADD16O,2.900000X1.500000*%
%ADD17C,1.400000*%
%ADD18C,0.250000*%
%ADD19C,1.100000*%
G04 APERTURE END LIST*
D10*
D11*
X-17605000Y-13795000D03*
D12*
X-20105000Y-13795000D03*
D13*
X-13160000Y-19510000D03*
D14*
X-13160000Y-16970000D03*
X-13160000Y-14430000D03*
X-13160000Y-11890000D03*
X-13160000Y-9350000D03*
X-13160000Y-6810000D03*
D12*
X-9580000Y-11760000D03*
D15*
X-9580000Y-19380000D03*
D16*
X-21480000Y-19540000D03*
X-6080000Y-19540000D03*
X-6080000Y-13540000D03*
X-6080000Y-7540000D03*
X-6080000Y-5540000D03*
D17*
X-17605000Y-13795000D02*
X-16320000Y-15080000D01*
X-20780000Y-19540000D02*
X-16320000Y-15080000D01*
X-16320000Y-15080000D02*
X-15670000Y-14430000D01*
X-15670000Y-14430000D02*
X-13160000Y-14430000D01*
D18*
X-13160000Y-11890000D02*
X-14430000Y-10620000D01*
X-14430000Y-10620000D02*
X-14430000Y-6340998D01*
X-14430000Y-6340998D02*
X-13629002Y-5540000D01*
X-13629002Y-5540000D02*
X-6780000Y-5540000D01*
X-13160000Y-9350000D02*
X-11350000Y-7540000D01*
X-11350000Y-7540000D02*
X-6780000Y-7540000D01*
X-9580000Y-11760000D02*
X-8560000Y-11760000D01*
X-8560000Y-11760000D02*
X-6780000Y-13540000D01*
D19*
G36*
X-3825000Y-19955000D02*
X-19144390Y-19955000D01*
X-15294698Y-16105307D01*
X-15294695Y-16105305D01*
X-15069390Y-15880000D01*
X-14350360Y-15880000D01*
X-14669553Y-16357707D01*
X-14791346Y-16970000D01*
X-14669553Y-17582293D01*
X-14322717Y-18101371D01*
X-13803639Y-18448207D01*
X-13191346Y-18570000D01*
X-13128654Y-18570000D01*
X-12516361Y-18448207D01*
X-11997283Y-18101371D01*
X-11650447Y-17582293D01*
X-11528654Y-16970000D01*
X-11650447Y-16357707D01*
X-11997283Y-15838629D01*
X-12204756Y-15700000D01*
X-11997283Y-15561371D01*
X-11650447Y-15042293D01*
X-11528654Y-14430000D01*
X-11650447Y-13817707D01*
X-11997283Y-13298629D01*
X-12204756Y-13160000D01*
X-11997283Y-13021371D01*
X-11650447Y-12502293D01*
X-11563854Y-12066961D01*
X-11130268Y-12066961D01*
X-10894792Y-12636857D01*
X-10459151Y-13073260D01*
X-9889667Y-13309730D01*
X-9273039Y-13310268D01*
X-8703143Y-13074792D01*
X-8592797Y-12964639D01*
X-8272388Y-13285049D01*
X-8323101Y-13540000D01*
X-8208920Y-14114025D01*
X-7883761Y-14600660D01*
X-7397126Y-14925819D01*
X-6823101Y-15040000D01*
X-5336899Y-15040000D01*
X-4762874Y-14925819D01*
X-4276239Y-14600660D01*
X-3951080Y-14114025D01*
X-3836899Y-13540000D01*
X-3951080Y-12965975D01*
X-4276239Y-12479340D01*
X-4762874Y-12154181D01*
X-5336899Y-12040000D01*
X-6823101Y-12040000D01*
X-7006152Y-12076411D01*
X-7941282Y-11141282D01*
X-8225152Y-10951605D01*
X-8233221Y-10950000D01*
X-8237974Y-10949055D01*
X-8265208Y-10883143D01*
X-8700849Y-10446740D01*
X-9270333Y-10210270D01*
X-9886961Y-10209732D01*
X-10456857Y-10445208D01*
X-10893260Y-10880849D01*
X-11129730Y-11450333D01*
X-11130268Y-12066961D01*
X-11563854Y-12066961D01*
X-11528654Y-11890000D01*
X-11650447Y-11277707D01*
X-11997283Y-10758629D01*
X-12204756Y-10620000D01*
X-11997283Y-10481371D01*
X-11650447Y-9962293D01*
X-11528654Y-9350000D01*
X-11594008Y-9021444D01*
X-10987563Y-8415000D01*
X-8007815Y-8415000D01*
X-7883761Y-8600660D01*
X-7397126Y-8925819D01*
X-6823101Y-9040000D01*
X-5336899Y-9040000D01*
X-4762874Y-8925819D01*
X-4276239Y-8600660D01*
X-3951080Y-8114025D01*
X-3836899Y-7540000D01*
X-3951080Y-6965975D01*
X-4235707Y-6540000D01*
X-3951080Y-6114025D01*
X-3836899Y-5540000D01*
X-3951080Y-4965975D01*
X-4276239Y-4479340D01*
X-4762874Y-4154181D01*
X-5336899Y-4040000D01*
X-6823101Y-4040000D01*
X-7397126Y-4154181D01*
X-7883761Y-4479340D01*
X-8007815Y-4665000D01*
X-13629002Y-4665000D01*
X-13963850Y-4731605D01*
X-14247721Y-4921282D01*
X-15048718Y-5722280D01*
X-15238395Y-6006150D01*
X-15305000Y-6340998D01*
X-15305000Y-10620000D01*
X-15252288Y-10885001D01*
X-15238395Y-10954848D01*
X-15048718Y-11238718D01*
X-14725992Y-11561444D01*
X-14791346Y-11890000D01*
X-14669553Y-12502293D01*
X-14350360Y-12980000D01*
X-15670000Y-12980000D01*
X-16040307Y-13053659D01*
X-16040307Y-12995000D01*
X-16092604Y-12717067D01*
X-16256862Y-12461802D01*
X-16507492Y-12290554D01*
X-16805000Y-12230307D01*
X-18405000Y-12230307D01*
X-18682933Y-12282604D01*
X-18938198Y-12446862D01*
X-19109446Y-12697492D01*
X-19169693Y-12995000D01*
X-19169693Y-14595000D01*
X-19117396Y-14872933D01*
X-18953138Y-15128198D01*
X-18702508Y-15299446D01*
X-18608993Y-15318383D01*
X-21330610Y-18040000D01*
X-22223101Y-18040000D01*
X-22495000Y-18094084D01*
X-22495000Y-3825000D01*
X-3825000Y-3825000D01*
X-3825000Y-19955000D01*
X-3825000Y-19955000D01*
G37*
X-3825000Y-19955000D02*
X-19144390Y-19955000D01*
X-15294698Y-16105307D01*
X-15294695Y-16105305D01*
X-15069390Y-15880000D01*
X-14350360Y-15880000D01*
X-14669553Y-16357707D01*
X-14791346Y-16970000D01*
X-14669553Y-17582293D01*
X-14322717Y-18101371D01*
X-13803639Y-18448207D01*
X-13191346Y-18570000D01*
X-13128654Y-18570000D01*
X-12516361Y-18448207D01*
X-11997283Y-18101371D01*
X-11650447Y-17582293D01*
X-11528654Y-16970000D01*
X-11650447Y-16357707D01*
X-11997283Y-15838629D01*
X-12204756Y-15700000D01*
X-11997283Y-15561371D01*
X-11650447Y-15042293D01*
X-11528654Y-14430000D01*
X-11650447Y-13817707D01*
X-11997283Y-13298629D01*
X-12204756Y-13160000D01*
X-11997283Y-13021371D01*
X-11650447Y-12502293D01*
X-11563854Y-12066961D01*
X-11130268Y-12066961D01*
X-10894792Y-12636857D01*
X-10459151Y-13073260D01*
X-9889667Y-13309730D01*
X-9273039Y-13310268D01*
X-8703143Y-13074792D01*
X-8592797Y-12964639D01*
X-8272388Y-13285049D01*
X-8323101Y-13540000D01*
X-8208920Y-14114025D01*
X-7883761Y-14600660D01*
X-7397126Y-14925819D01*
X-6823101Y-15040000D01*
X-5336899Y-15040000D01*
X-4762874Y-14925819D01*
X-4276239Y-14600660D01*
X-3951080Y-14114025D01*
X-3836899Y-13540000D01*
X-3951080Y-12965975D01*
X-4276239Y-12479340D01*
X-4762874Y-12154181D01*
X-5336899Y-12040000D01*
X-6823101Y-12040000D01*
X-7006152Y-12076411D01*
X-7941282Y-11141282D01*
X-8225152Y-10951605D01*
X-8233221Y-10950000D01*
X-8237974Y-10949055D01*
X-8265208Y-10883143D01*
X-8700849Y-10446740D01*
X-9270333Y-10210270D01*
X-9886961Y-10209732D01*
X-10456857Y-10445208D01*
X-10893260Y-10880849D01*
X-11129730Y-11450333D01*
X-11130268Y-12066961D01*
X-11563854Y-12066961D01*
X-11528654Y-11890000D01*
X-11650447Y-11277707D01*
X-11997283Y-10758629D01*
X-12204756Y-10620000D01*
X-11997283Y-10481371D01*
X-11650447Y-9962293D01*
X-11528654Y-9350000D01*
X-11594008Y-9021444D01*
X-10987563Y-8415000D01*
X-8007815Y-8415000D01*
X-7883761Y-8600660D01*
X-7397126Y-8925819D01*
X-6823101Y-9040000D01*
X-5336899Y-9040000D01*
X-4762874Y-8925819D01*
X-4276239Y-8600660D01*
X-3951080Y-8114025D01*
X-3836899Y-7540000D01*
X-3951080Y-6965975D01*
X-4235707Y-6540000D01*
X-3951080Y-6114025D01*
X-3836899Y-5540000D01*
X-3951080Y-4965975D01*
X-4276239Y-4479340D01*
X-4762874Y-4154181D01*
X-5336899Y-4040000D01*
X-6823101Y-4040000D01*
X-7397126Y-4154181D01*
X-7883761Y-4479340D01*
X-8007815Y-4665000D01*
X-13629002Y-4665000D01*
X-13963850Y-4731605D01*
X-14247721Y-4921282D01*
X-15048718Y-5722280D01*
X-15238395Y-6006150D01*
X-15305000Y-6340998D01*
X-15305000Y-10620000D01*
X-15252288Y-10885001D01*
X-15238395Y-10954848D01*
X-15048718Y-11238718D01*
X-14725992Y-11561444D01*
X-14791346Y-11890000D01*
X-14669553Y-12502293D01*
X-14350360Y-12980000D01*
X-15670000Y-12980000D01*
X-16040307Y-13053659D01*
X-16040307Y-12995000D01*
X-16092604Y-12717067D01*
X-16256862Y-12461802D01*
X-16507492Y-12290554D01*
X-16805000Y-12230307D01*
X-18405000Y-12230307D01*
X-18682933Y-12282604D01*
X-18938198Y-12446862D01*
X-19109446Y-12697492D01*
X-19169693Y-12995000D01*
X-19169693Y-14595000D01*
X-19117396Y-14872933D01*
X-18953138Y-15128198D01*
X-18702508Y-15299446D01*
X-18608993Y-15318383D01*
X-21330610Y-18040000D01*
X-22223101Y-18040000D01*
X-22495000Y-18094084D01*
X-22495000Y-3825000D01*
X-3825000Y-3825000D01*
X-3825000Y-19955000D01*
M02*
